<svg width="661" height="108" viewBox="0 0 661 108" fill="none" xmlns="http://www.w3.org/2000/svg">
<path d="M70.44 53.64C76.2 55.8 80.72 59 84 63.24C87.36 67.4 89.04 72.08 89.04 77.28C89.04 82.32 86.84 87.08 82.44 91.56C78.12 95.96 72.72 99.48 66.24 102.12C59.76 104.76 53.56 106.08 47.64 106.08C43.64 106.08 39.72 105.88 35.88 105.48C29.48 105.08 24.52 104.88 21 104.88H2.76V98.16L14.04 89.28V21.84L0.72 18.36L4.68 10.56H20.88C28.16 10.56 35.32 10.32 42.36 9.83999C47.8 9.51999 51.8 9.35999 54.36 9.35999C60.28 9.35999 65.48 10.4 69.96 12.48C74.52 14.56 78.04 17.4 80.52 21C83 24.52 84.24 28.48 84.24 32.88C84.24 36.8 82.96 40.56 80.4 44.16C77.92 47.76 74.6 50.96 70.44 53.76V53.64ZM61.2 39.24C61.2 33.48 59.84 28.84 57.12 25.32C54.4 21.8 50.36 20.04 45 20.04C41.72 20.04 38.64 20.72 35.76 22.08V52.92H49.2C53.12 52.92 56.08 51.76 58.08 49.44C60.16 47.12 61.2 43.72 61.2 39.24ZM51.12 94.2C55.76 94.2 59.4 93 62.04 90.6C64.76 88.2 66.12 84.92 66.12 80.76C66.12 75.32 64.6 70.88 61.56 67.44C58.6 63.92 54.16 62 48.24 61.68H45.84H35.76V91.56C40.32 93.32 45.4 94.2 51 94.2H51.12ZM138.471 39.12C144.391 39.12 149.671 40.52 154.311 43.32C158.951 46.04 162.551 49.8 165.111 54.6C167.751 59.4 169.071 64.72 169.071 70.56C169.071 76.88 167.031 82.8 162.951 88.32C158.871 93.76 153.751 98.12 147.591 101.4C141.511 104.6 135.631 106.2 129.951 106.2C124.111 106.2 118.831 104.84 114.111 102.12C109.471 99.32 105.831 95.52 103.191 90.72C100.631 85.92 99.3506 80.6 99.3506 74.76C99.3506 68.44 101.391 62.56 105.471 57.12C109.551 51.6 114.631 47.24 120.711 44.04C126.871 40.76 132.791 39.12 138.471 39.12ZM131.511 53.04C128.151 53.04 125.591 54.4 123.831 57.12C122.151 59.76 121.311 63.72 121.311 69C121.311 75.72 122.671 81.32 125.391 85.8C128.111 90.2 131.951 92.4 136.911 92.4C140.191 92.4 142.671 91.04 144.351 88.32C146.111 85.52 146.991 81.48 146.991 76.2C146.991 69.48 145.631 63.96 142.911 59.64C140.191 55.24 136.391 53.04 131.511 53.04ZM222.025 39.12C227.945 39.12 233.225 40.52 237.865 43.32C242.505 46.04 246.105 49.8 248.665 54.6C251.305 59.4 252.625 64.72 252.625 70.56C252.625 76.88 250.585 82.8 246.505 88.32C242.425 93.76 237.305 98.12 231.145 101.4C225.065 104.6 219.185 106.2 213.505 106.2C207.665 106.2 202.385 104.84 197.665 102.12C193.025 99.32 189.385 95.52 186.745 90.72C184.185 85.92 182.905 80.6 182.905 74.76C182.905 68.44 184.945 62.56 189.025 57.12C193.105 51.6 198.185 47.24 204.265 44.04C210.425 40.76 216.345 39.12 222.025 39.12ZM215.065 53.04C211.705 53.04 209.145 54.4 207.385 57.12C205.705 59.76 204.865 63.72 204.865 69C204.865 75.72 206.225 81.32 208.945 85.8C211.665 90.2 215.505 92.4 220.465 92.4C223.745 92.4 226.225 91.04 227.905 88.32C229.665 85.52 230.545 81.48 230.545 76.2C230.545 69.48 229.185 63.96 226.465 59.64C223.745 55.24 219.945 53.04 215.065 53.04ZM303.437 97.2L299.477 105H261.557V98.28L272.237 89.28V23.64L261.557 16.56V9.83999L285.077 0.239997H292.637V93.6L303.437 97.2ZM341.717 104.88H316.877L297.317 72.72L318.437 55.92L303.797 48L307.637 40.2H342.317V46.92L317.477 67.32L333.677 92.52L345.557 97.08L341.717 104.88ZM408.365 8.27999C413.005 8.27999 418.405 8.88 424.565 10.08C430.805 11.28 435.365 12.56 438.245 13.92V39.48H426.845C420.685 27.88 412.205 22.08 401.405 22.08C397.005 22.08 392.965 23.48 389.285 26.28C385.605 29.08 382.685 32.92 380.525 37.8C378.445 42.68 377.405 48.16 377.405 54.24C377.405 61.12 378.445 67.44 380.525 73.2C382.685 78.88 385.925 83.44 390.245 86.88C394.565 90.24 399.925 91.92 406.325 91.92C413.605 91.92 423.965 87.92 437.405 79.92L442.205 87.6L420.125 104.76C416.605 105.8 413.205 106.48 409.925 106.8C406.725 107.2 403.285 107.4 399.605 107.4C390.645 107.4 382.685 105.36 375.725 101.28C368.765 97.2 363.365 91.6 359.525 84.48C355.685 77.28 353.765 69.12 353.765 60C353.765 50.64 356.645 42 362.405 34.08C368.165 26.08 375.325 19.8 383.885 15.24C392.445 10.6 400.605 8.27999 408.365 8.27999ZM487.914 105H449.994V98.28L460.674 89.28V23.64L449.994 16.56V9.83999L473.514 0.239997H481.074V93.6L491.874 97.2L487.914 105ZM574.158 105H546.798V94.68L533.838 105.36C531.678 106 529.238 106.32 526.518 106.32C520.358 106.32 515.478 104.68 511.878 101.4C508.278 98.04 506.478 93.52 506.478 87.84V62.04L495.798 55.92V49.2L519.318 38.76H526.878V78.84C526.878 82.68 527.438 85.36 528.558 86.88C529.678 88.4 531.678 89.16 534.558 89.16C538.718 89.16 542.798 87.8 546.798 85.08V62.04L536.118 55.92V49.2L559.638 38.76H567.198V93.6L577.998 97.2L574.158 105ZM634.851 39.12C639.731 39.12 644.131 40.52 648.051 43.32C652.051 46.04 655.131 49.8 657.291 54.6C659.531 59.4 660.651 64.72 660.651 70.56C660.651 76.88 658.611 82.8 654.531 88.32C650.451 93.76 645.331 98.12 639.171 101.4C633.091 104.6 627.211 106.2 621.531 106.2C618.331 106.2 615.331 105.6 612.531 104.4C609.811 103.12 607.371 101.36 605.211 99.12L599.691 105H592.131V23.64L581.451 16.56V9.83999L604.971 0.239997H612.531V50.76L625.851 40.08C628.411 39.44 631.411 39.12 634.851 39.12ZM628.371 92.4C631.811 92.4 634.411 91.04 636.171 88.32C638.011 85.6 638.931 81.6 638.931 76.32C638.931 70 637.931 64.8 635.931 60.72C633.931 56.64 631.051 54.6 627.291 54.6C624.651 54.6 622.131 54.92 619.731 55.56C617.411 56.2 615.011 57.36 612.531 59.04V79.2C612.531 82.96 613.891 86.12 616.611 88.68C619.411 91.16 623.371 92.4 628.491 92.4H628.371Z" fill="black"/>
</svg>
